<svg xmlns="http://www.w3.org/2000/svg" viewBox="0 0 220 220" width="220" height="220">
  <defs>
    <g id="sprig" stroke="#8a9a64" stroke-width="1" fill="#8a9a64">
      <path d="M0 0 q 10 -10 22 -8" fill="none"/>
      <ellipse cx="6" cy="-3" rx="3" ry="1.6" transform="rotate(-30 6 -3)"/>
      <ellipse cx="13" cy="-6" rx="3" ry="1.6" transform="rotate(-30 13 -6)"/>
      <ellipse cx="20" cy="-8" rx="3" ry="1.6" transform="rotate(-20 20 -8)"/>
    </g>
    <g id="flo" fill="#b0915a">
      <circle cx="0" cy="-5" r="2.4"/><circle cx="5" cy="0" r="2.4"/>
      <circle cx="0" cy="5" r="2.4"/><circle cx="-5" cy="0" r="2.4"/>
      <circle cx="0" cy="0" r="1.8"/>
    </g>
  </defs>
  <g opacity="0.07">
    <use href="#flo" transform="translate(40 38)"/>
    <use href="#flo" transform="translate(150 70) scale(1.2)"/>
    <use href="#flo" transform="translate(95 150)"/>
    <use href="#flo" transform="translate(185 175)"/>
    <use href="#flo" transform="translate(20 180)"/>
    <use href="#sprig" transform="translate(70 95) rotate(10)"/>
    <use href="#sprig" transform="translate(150 130) rotate(150) scale(1.1)"/>
    <use href="#sprig" transform="translate(20 110) rotate(-40)"/>
    <use href="#sprig" transform="translate(175 30) rotate(90)"/>
    <use href="#sprig" transform="translate(110 200) rotate(200)"/>
    <circle cx="120" cy="20" r="1.6" fill="#8a9a64"/>
    <circle cx="60" cy="160" r="1.6" fill="#8a9a64"/>
    <circle cx="200" cy="110" r="1.6" fill="#8a9a64"/>
  </g>
</svg>
